<svg xmlns="http://www.w3.org/2000/svg" viewBox="0 0 512 512"><path fill="#fff" d="M256 109.9c-86.7 0-161.5 49.8-198 122.2C96.7 178.8 159.5 144 230.4 144c77.5 0 145.1 41.5 182.5 103.3l39.1-19.5c-37.3-70.1-111.1-117.9-196-117.9zm0 68.3c-63.3 0-117.6 38.3-141.1 93 26.3-35.7 68.5-58.9 116.1-58.9 50.5 0 94.9 26.1 120.8 65.6l39.2-19.7c-26.1-47.7-76.8-80-135-80zM0 235.9v38.2l248.3 124.2 7.7 3.8 256-128V236L256 364 0 235.9zm255.5 10.6c-37.5 0-68.9 24.5-80.2 58.3 13.9-14.8 33.5-24.1 55.4-24.1 23.9 0 44.9 11.1 58.9 28.3l39.2-19.6c-14.7-25.5-41.8-42.9-73.3-42.9z"/></svg>